<?xml version="1.0" encoding="UTF-8"?>
<svg id="Capa_1" xmlns="http://www.w3.org/2000/svg" version="1.1" xmlns:xlink="http://www.w3.org/1999/xlink" viewBox="0 0 300 300">
  <!-- Generator: Adobe Illustrator 29.0.0, SVG Export Plug-In . SVG Version: 2.1.0 Build 186)  -->
  <defs>
    <style>
      .st0 {
        fill: #fefffe;
      }

      .st1 {
        fill: url(#Degradado_sin_nombre_76);
      }
    </style>
    <linearGradient id="Degradado_sin_nombre_76" data-name="Degradado sin nombre 76" x1="26.44" y1="148.8" x2="274.82" y2="148.8" gradientUnits="userSpaceOnUse">
      <stop offset="0" stop-color="#479845"/>
      <stop offset="1" stop-color="#69b657"/>
    </linearGradient>
  </defs>
  <path class="st0" d="M0,300l21.13-76.59C6.67,197.51.31,169.77,1.47,139.99c.09-2.28.37-10.06.74-11.74.06-.28.75-.23.76-.45.02-.52-.6-1.29-.39-2.13s.41.66.34-1.93c-.02-.69.79-.49.79-.74,0-.39-.46-.91-.41-1.41.02-.23.66-.17.75-.49.4-1.39.55-3.67.93-5.28C23.42,39.23,95.62-10.49,174.59,1.89c65.08,10.2,116.74,63.71,124.36,128.94,12.59,107.64-90.16,192.71-194.29,159.59-9-2.86-17.35-7.09-25.93-10.74C52.43,286.21,26.31,293.51,0,300ZM35.94,264.94l46.5-12.19c16.33,9.28,33.34,16.42,52.28,18.79,85.72,10.69,155.75-66.3,137.04-150.18-10.89-48.81-51.91-87.18-101.58-94.79C85.77,13.64,13.95,86.31,28.27,170.16c3.02,17.67,10.37,34.28,20.13,49.19l-12.45,45.59Z"/>
  <path class="st1" d="M35.94,264.94l12.45-45.59c-9.76-14.91-17.11-31.52-20.13-49.19C13.95,86.31,85.77,13.64,170.19,26.57c49.68,7.61,90.7,45.98,101.58,94.79,18.7,83.87-51.32,160.87-137.04,150.18-18.94-2.36-35.95-9.51-52.28-18.79l-46.5,12.19ZM117.23,186.54c13.57,12.45,26.83,20.4,44.21,26.64,18.18,6.52,34.93,11.69,52.23-.19,7.05-4.84,10.06-8.96,11.78-17.43.76-3.78,2.39-10.36-1.18-12.86-3.98-2.79-13-6.61-17.77-8.87-3.64-1.72-13.96-7.1-17.36-7.09-.91,0-1.84.25-2.59.76-4.55,4.93-8.34,11.05-12.96,15.88-3.59,3.76-4.39,3.45-9.07,1.64-19.42-7.51-36.82-22.28-47.81-39.84-1.68-2.69-4.54-6.14-3.03-9.32,1.43-3,7.06-7.55,9.27-11.06,1.53-2.42,3.09-5.47,2.63-8.39-4.79-9.6-7.79-22.84-13.23-31.84-1.94-3.22-3.87-4.26-7.65-4.56-11.29-.88-15.62,1.77-21.99,10.6-17.47,24.23-3.68,48.91,11.49,69.62,6.78,9.26,14.6,18.55,23.06,26.3Z"/>
  <path class="st0" d="M117.23,186.54c-8.46-7.76-16.28-17.05-23.06-26.3-15.17-20.71-28.96-45.39-11.49-69.62,6.37-8.83,10.7-11.48,21.99-10.6,3.79.3,5.71,1.34,7.65,4.56,5.45,9.01,8.44,22.24,13.23,31.84.46,2.92-1.1,5.97-2.63,8.39-2.21,3.5-7.85,8.06-9.27,11.06-1.51,3.17,1.35,6.63,3.03,9.32,11,17.56,28.4,32.33,47.81,39.84,4.68,1.81,5.48,2.12,9.07-1.64,4.62-4.83,8.41-10.95,12.96-15.88.76-.52,1.68-.76,2.59-.76,3.4,0,13.72,5.37,17.36,7.09,4.77,2.25,13.79,6.08,17.77,8.87,3.57,2.5,1.94,9.08,1.18,12.86-1.71,8.46-4.72,12.58-11.78,17.43-17.3,11.88-34.06,6.71-52.23.19-17.38-6.24-30.64-14.19-44.21-26.64Z"/>
</svg>